<?xml version="1.0" standalone="no"?><!DOCTYPE svg PUBLIC "-//W3C//DTD SVG 1.1//EN" "http://www.w3.org/Graphics/SVG/1.1/DTD/svg11.dtd"><svg t="1601783057942" class="icon" viewBox="0 0 1024 1024" version="1.1" xmlns="http://www.w3.org/2000/svg" p-id="1559" xmlns:xlink="http://www.w3.org/1999/xlink" width="200" height="200"><defs><style type="text/css"></style></defs><path d="M752.200152 804.217365c-1.470491-14.257725-12.915148-26.38595-27.805276-26.513864-12.355399-0.075725-14.382569-6.228865-14.281261-16.257266 0.151449-22.713304-0.303922-45.453215 0-68.166519 0.25378-23.551392-8.55791-42.921555-24.207331-60.140729-26.437116-28.891004-51.506071-59.026348-78.498842-87.310531-27.145244-28.385491-26.841322-52.845579-0.506537-80.498382 26.892487-28.386514 51.961442-58.519812 78.4487-87.336114 16.561188-17.952884 25.270547-38.287001 24.865317-62.823837-0.506537-22.715351 0.051165-45.454238-0.101307-68.142983-0.101307-9.445116 3.140527-13.800307 13.471826-14.129812 15.799848-0.50756 27.65178-12.611226 28.66383-27.196409 1.014096-13.166881-9.570983-26.435069-24.409946-29.980825-4.660136-1.11438-9.623171-1.240247-14.383592-1.240247-131.422192-0.051165-262.844384-0.051165-394.317741 0.050142-5.672186 0-11.597129 0.405229-17.116843 1.899256-14.080693 3.823072-23.702841 17.142425-22.334681 29.879518 1.569752 14.510482 12.710486 26.437116 27.701922 26.5374 12.357446 0.051165 14.383592 6.205329 14.332427 16.283872-0.203638 22.688745 0.252757 45.402049 0 68.116377-0.252757 23.499204 8.558933 42.895973 24.207331 60.140729 28.614711 31.449269 56.82317 63.279209 84.830037 95.287203 20.054755 22.865777 19.954471 42.388413-0.405229 65.659419-28.057009 31.982412-56.265468 63.786769-84.778872 95.312786-15.294334 16.863063-24.00574 35.855626-23.802102 58.823734 0.302899 22.233374-0.303922 44.441165 0.101307 66.699098 0.201591 11.926634-2.025123 18.940374-16.511046 18.688641-13.115716-0.178055-24.207331 11.748578-25.220405 25.600051-1.115404 13.117762 4.556783 23.877827 17.065677 28.994358 6.53381 2.631944 14.131859 3.470031 21.220301 3.495614 65.73719 0.252757 131.423215 0.150426 197.160405 0.150426 65.683978 0 131.421168 0.051165 197.056028-0.102331 6.178723 0 12.661368-0.557702 18.535145-2.329045C744.24804 829.765227 753.464959 816.244282 752.200152 804.217365zM652.886239 762.610758c0.302899 11.523451-4.507664 14.992459-15.497972 14.839986-40.61707-0.481977-81.235163-0.201591-121.750925-0.201591-38.184671 0-76.371388 0.050142-114.455775 0-21.878287 0-21.878287-0.052189-21.929452-22.639626-0.051165-12.559037 1.164522-25.27157-0.252757-37.627992-2.886747-23.700795 6.02625-41.425482 22.131043-58.189284 26.38595-27.550473 51.252291-56.519248 76.472696-85.159542 35.653011-40.36329 34.894741-97.363492-1.417279-138.384767-28.513404-32.133861-57.684794-63.761186-85.336574-96.680946-6.482645-7.721869-10.228969-19.522636-11.140735-29.803793-1.722224-19.675108-0.102331-39.552831-0.657986-59.380412-0.304945-11.44568 3.139503-16.407692 15.598256-16.331967 81.182974 0.405229 162.265664 0.329505 243.447615 0.051165 10.382465-0.051165 15.041578 3.26537 14.788821 14.054087-0.405229 21.750373 0.810459 43.553958-0.557702 65.204048-0.557702 8.433066-4.304026 18.207687-9.724479 24.588001-27.904537 32.691563-56.568367 64.671928-85.385693 96.629781-38.792515 43.098587-39.047318 99.743702-0.455371 142.815683 28.664853 32.006971 57.532321 63.912635 85.284385 96.679923 5.774517 6.710842 9.623171 16.890692 10.231015 25.803689C653.696698 720.069873 652.328537 741.366921 652.886239 762.610758z" p-id="1560" fill="#f4ea2a"></path></svg>