<?xml version="1.0" standalone="no"?><!DOCTYPE svg PUBLIC "-//W3C//DTD SVG 1.1//EN" "http://www.w3.org/Graphics/SVG/1.1/DTD/svg11.dtd"><svg t="1601767900482" class="icon" viewBox="0 0 1038 1024" version="1.1" xmlns="http://www.w3.org/2000/svg" p-id="2432" xmlns:xlink="http://www.w3.org/1999/xlink" width="202.734375" height="200"><defs><style type="text/css"></style></defs><path d="M864.864865 851.027027c-27.675676 0-48.432432-6.918919-69.189189-13.837838l0 117.621622c0 41.513514-27.675676 69.189189-69.189189 69.189189L138.378378 1024c-41.513514 0-69.189189-27.675676-69.189189-69.189189l0-138.378378 0-69.189189 172.972973 0c41.513514 0 69.189189-27.675676 69.189189-69.189189 0-41.513514-27.675676-69.189189-69.189189-69.189189L69.189189 608.864865l0-69.189189 0-138.378378c0-41.513514 27.675676-69.189189 69.189189-69.189189l152.216216 0C283.675676 304.432432 276.756757 283.675676 276.756757 262.918919c0-96.864865 76.108108-172.972973 172.972973-172.972973C546.594595 89.945946 622.702703 166.054054 622.702703 262.918919c0 27.675676-6.918919 48.432432-13.837838 69.189189l117.621622 0c41.513514 0 69.189189 27.675676 69.189189 69.189189l0 117.621622c20.756757-6.918919 41.513514-13.837838 69.189189-13.837838 96.864865 0 172.972973 76.108108 172.972973 172.972973C1037.837838 768 961.72973 851.027027 864.864865 851.027027zM864.864865 574.27027c-48.432432 0-83.027027 27.675676-96.864865 69.189189l-41.513514 0 0-207.567568c0-20.756757-13.837838-34.594595-34.594595-34.594595L484.324324 401.297297 484.324324 359.783784C525.837838 345.945946 553.513514 304.432432 553.513514 262.918919c0-55.351351-48.432432-103.783784-103.783784-103.783784C394.378378 159.135135 345.945946 200.648649 345.945946 262.918919 345.945946 304.432432 373.621622 345.945946 415.135135 359.783784l0 41.513514L172.972973 401.297297C152.216216 394.378378 138.378378 415.135135 138.378378 435.891892l0 103.783784 103.783784 0c76.108108 0 138.378378 62.27027 138.378378 138.378378 0 76.108108-62.27027 138.378378-138.378378 138.378378L138.378378 816.432432l0 103.783784c0 20.756757 13.837838 34.594595 34.594595 34.594595L691.891892 954.810811c20.756757 0 34.594595-13.837838 34.594595-34.594595l0-207.567568 41.513514 0c13.837838 41.513514 55.351351 69.189189 96.864865 69.189189 55.351351 0 103.783784-48.432432 103.783784-103.783784C968.648649 615.783784 920.216216 574.27027 864.864865 574.27027z" p-id="2433" fill="#ffffff"></path></svg>