<?xml version="1.0" standalone="no"?><!DOCTYPE svg PUBLIC "-//W3C//DTD SVG 1.1//EN" "http://www.w3.org/Graphics/SVG/1.1/DTD/svg11.dtd"><svg t="1601764891694" class="icon" viewBox="0 0 1024 1024" version="1.1" xmlns="http://www.w3.org/2000/svg" p-id="1317" xmlns:xlink="http://www.w3.org/1999/xlink" width="200" height="200"><defs><style type="text/css"></style></defs><path d="M357.44 220.8a133.248 133.248 0 0 0-94.08 227.072 48 48 0 1 1-67.84 67.904 229.312 229.312 0 0 1 0-323.84 227.328 227.328 0 0 1 161.92-67.136c61.248 0 118.72 23.808 161.984 67.136l96 96a229.76 229.76 0 0 1 29.376 288 48 48 0 0 1-80.192-52.928 133.44 133.44 0 0 0-17.088-167.232l-96-96a132.16 132.16 0 0 0-94.08-38.976z m403.136 287.36a48 48 0 0 1 67.84 0 229.312 229.312 0 0 1 0 323.904 227.392 227.392 0 0 1-161.92 67.136A227.392 227.392 0 0 1 504.576 832l-96-96a229.76 229.76 0 0 1-29.312-288 48 48 0 0 1 80.128 52.928 133.376 133.376 0 0 0 17.088 167.232l96 96c25.088 25.088 58.496 38.976 94.08 38.976A133.12 133.12 0 0 0 760.576 576a48 48 0 0 1-0.064-67.84z" p-id="1318" fill="#ffffff"></path></svg>